<?xml version="1.0" encoding="UTF-8"?>
<!DOCTYPE svg PUBLIC "-//W3C//DTD SVG 1.1//EN" "http://www.w3.org/Graphics/SVG/1.1/DTD/svg11.dtd">
<svg xmlns="http://www.w3.org/2000/svg" version="1.1" width="512px" height="512px" style="shape-rendering:geometricPrecision; text-rendering:geometricPrecision; image-rendering:optimizeQuality; fill-rule:evenodd; clip-rule:evenodd" xmlns:xlink="http://www.w3.org/1999/xlink">
<g><path style="opacity:0.952" fill="#fed301" d="M 342.5,73.5 C 347.742,72.2706 351.575,73.9372 354,78.5C 354.667,90.8333 354.667,103.167 354,115.5C 351.459,120.069 347.625,121.569 342.5,120C 341.333,118.833 340.167,117.667 339,116.5C 338.333,103.5 338.333,90.5 339,77.5C 339.69,75.6498 340.856,74.3164 342.5,73.5 Z"/></g>
<g><path style="opacity:0.952" fill="#fed401" d="M 263.5,94.5 C 267.257,94.0708 270.757,94.7375 274,96.5C 279.667,106.5 285.333,116.5 291,126.5C 292.167,134.667 288.667,138.167 280.5,137C 278.714,136.215 277.214,135.049 276,133.5C 270.667,124.167 265.333,114.833 260,105.5C 258.882,101.077 260.049,97.41 263.5,94.5 Z"/></g>
<g><path style="opacity:0.954" fill="#fed401" d="M 421.5,94.5 C 429.614,93.1209 433.447,96.4543 433,104.5C 427.333,114.5 421.667,124.5 416,134.5C 411.046,138.677 406.38,138.343 402,133.5C 401.333,130.833 401.333,128.167 402,125.5C 408.039,114.729 414.539,104.396 421.5,94.5 Z"/></g>
<g><path style="opacity:1" fill="#fac604" d="M 371.5,146.5 C 342.243,156.585 321.409,175.918 309,204.5C 308.009,206.447 307.675,208.447 308,210.5C 315.598,218.762 322.432,227.595 328.5,237C 352.974,241.567 373.641,252.9 390.5,271C 404.45,270.659 417.95,272.825 431,277.5C 430.981,279.107 430.815,280.774 430.5,282.5C 428.421,286.993 426.088,291.326 423.5,295.5C 409.642,293.004 395.642,291.837 381.5,292C 364.527,270.179 342.193,258.345 314.5,256.5C 312.593,251.016 309.927,246.016 306.5,241.5C 294.712,223.043 279.378,208.377 260.5,197.5C 280.881,159.968 312.547,142.135 355.5,144C 360.897,144.513 366.23,145.347 371.5,146.5 Z"/></g>
<g><path style="opacity:0.996" fill="#fed301" d="M 371.5,146.5 C 415.574,161.288 438.907,191.955 441.5,238.5C 441.57,254.22 437.903,268.887 430.5,282.5C 430.815,280.774 430.981,279.107 431,277.5C 417.95,272.825 404.45,270.659 390.5,271C 373.641,252.9 352.974,241.567 328.5,237C 322.432,227.595 315.598,218.762 308,210.5C 307.675,208.447 308.009,206.447 309,204.5C 321.409,175.918 342.243,156.585 371.5,146.5 Z"/></g>
<g><path style="opacity:0.956" fill="#fed401" d="M 480.5,151.5 C 490.536,152.19 493.202,157.023 488.5,166C 478.757,172.067 468.757,177.734 458.5,183C 452.074,184.459 448.408,181.959 447.5,175.5C 447.556,172.889 448.556,170.722 450.5,169C 460.727,163.392 470.727,157.559 480.5,151.5 Z"/></g>
<g><path style="opacity:1" fill="#d8ecfe" d="M 213.5,183.5 C 173.033,189.904 142.033,210.571 120.5,245.5C 150.685,256.851 171.852,277.518 184,307.5C 188.089,318.831 189.422,330.497 188,342.5C 183.959,347.313 179.625,347.646 175,343.5C 171.937,296.771 147.603,268.104 102,257.5C 63.4659,267.367 39.7993,291.701 31,330.5C 26.9566,389.145 53.4566,424.812 110.5,437.5C 70.3815,442.673 38.2149,429.34 14,397.5C 6.88289,385.953 2.04955,373.619 -0.5,360.5C -0.5,351.167 -0.5,341.833 -0.5,332.5C 9.86619,287.141 38.1995,261.141 84.5,254.5C 105.914,212.949 139.914,189.115 186.5,183C 195.578,182.196 204.578,182.363 213.5,183.5 Z"/></g>
<g><path style="opacity:0.999" fill="#e9f5fe" d="M 213.5,183.5 C 230.145,184.938 245.812,189.605 260.5,197.5C 279.378,208.377 294.712,223.043 306.5,241.5C 283.459,243.437 263.959,252.77 248,269.5C 245.323,278.156 248.489,281.989 257.5,281C 267.98,269.758 280.647,262.092 295.5,258C 301.778,256.812 308.112,256.312 314.5,256.5C 342.193,258.345 364.527,270.179 381.5,292C 395.642,291.837 409.642,293.004 423.5,295.5C 450.255,305.426 466.421,324.426 472,352.5C 476.027,388.957 461.86,415.457 429.5,432C 416.627,436.99 403.293,438.823 389.5,437.5C 354.367,428.524 335.867,405.857 334,369.5C 329.829,363.271 325.163,362.938 320,368.5C 319.006,397.174 329.839,420.174 352.5,437.5C 271.833,437.5 191.167,437.5 110.5,437.5C 53.4566,424.812 26.9566,389.145 31,330.5C 39.7993,291.701 63.4659,267.367 102,257.5C 147.603,268.104 171.937,296.771 175,343.5C 179.625,347.646 183.959,347.313 188,342.5C 189.422,330.497 188.089,318.831 184,307.5C 171.852,277.518 150.685,256.851 120.5,245.5C 142.033,210.571 173.033,189.904 213.5,183.5 Z"/></g>
<g><path style="opacity:0.948" fill="#fed301" d="M 511.5,234.5 C 511.5,237.167 511.5,239.833 511.5,242.5C 510.684,244.144 509.35,245.31 507.5,246C 494.5,246.667 481.5,246.667 468.5,246C 464.723,243.045 463.557,239.212 465,234.5C 466.214,232.951 467.714,231.785 469.5,231C 481.833,230.333 494.167,230.333 506.5,231C 508.323,231.997 509.99,233.164 511.5,234.5 Z"/></g>
<g><path style="opacity:1" fill="#d8ecfd" d="M 306.5,241.5 C 309.927,246.016 312.593,251.016 314.5,256.5C 308.112,256.312 301.778,256.812 295.5,258C 280.647,262.092 267.98,269.758 257.5,281C 248.489,281.989 245.323,278.156 248,269.5C 263.959,252.77 283.459,243.437 306.5,241.5 Z"/></g>
<g><path style="opacity:1" fill="#d8ecfe" d="M 389.5,437.5 C 377.167,437.5 364.833,437.5 352.5,437.5C 329.839,420.174 319.006,397.174 320,368.5C 325.163,362.938 329.829,363.271 334,369.5C 335.867,405.857 354.367,428.524 389.5,437.5 Z"/></g>
</svg>
