<?xml version="1.0" encoding="UTF-8"?>
<!DOCTYPE svg PUBLIC "-//W3C//DTD SVG 1.1//EN" "http://www.w3.org/Graphics/SVG/1.1/DTD/svg11.dtd">
<svg xmlns="http://www.w3.org/2000/svg" version="1.1" width="512px" height="512px" style="shape-rendering:geometricPrecision; text-rendering:geometricPrecision; image-rendering:optimizeQuality; fill-rule:evenodd; clip-rule:evenodd" xmlns:xlink="http://www.w3.org/1999/xlink">
<g><path style="opacity:0.996" fill="#f5f7f7" d="M 272.5,34.5 C 288.396,56.051 286.729,76.2177 267.5,95C 247.844,107.431 229.344,105.931 212,90.5C 198.564,72.5195 198.064,54.1862 210.5,35.5C 226.942,31.7138 243.609,30.5471 260.5,32C 264.736,32.3349 268.736,33.1682 272.5,34.5 Z"/></g>
<g><path style="opacity:0.996" fill="#f0f2f2" d="M 272.5,34.5 C 291.602,37.739 308.269,45.739 322.5,58.5C 318.936,108.398 292.269,136.064 242.5,141.5C 198.991,138.154 172.825,115.154 164,72.5C 163.501,68.5138 163.334,64.5138 163.5,60.5C 177.237,48.7946 192.904,40.4613 210.5,35.5C 198.064,54.1862 198.564,72.5195 212,90.5C 229.344,105.931 247.844,107.431 267.5,95C 286.729,76.2177 288.396,56.051 272.5,34.5 Z"/></g>
<g><path style="opacity:0.998" fill="#eceeee" d="M 322.5,58.5 C 329.432,62.4305 335.099,67.7638 339.5,74.5C 325.668,132.781 288.668,160.614 228.5,158C 183.839,148.839 156.505,122.006 146.5,77.5C 151.167,70.8333 156.833,65.1667 163.5,60.5C 163.334,64.5138 163.501,68.5138 164,72.5C 172.825,115.154 198.991,138.154 242.5,141.5C 292.269,136.064 318.936,108.398 322.5,58.5 Z"/></g>
<g><path style="opacity:0.997" fill="#e8ebeb" d="M 339.5,74.5 C 345.9,80.4489 351.233,87.2822 355.5,95C 361.706,95.3818 367.706,96.2151 373.5,97.5C 359.694,145.474 329.027,177.308 281.5,193C 211.642,208.388 157.976,185.888 120.5,125.5C 125.552,107.387 134.218,91.3869 146.5,77.5C 156.505,122.006 183.839,148.839 228.5,158C 288.668,160.614 325.668,132.781 339.5,74.5 Z"/></g>
<g><path style="opacity:0.998" fill="#e5e8e9" d="M 373.5,97.5 C 393.478,100.83 411.478,108.497 427.5,120.5C 405.788,185.04 362.122,227.873 296.5,249C 207.487,269.613 135.487,243.78 80.5,171.5C 91.5442,164.93 103.544,160.93 116.5,159.5C 116.52,148.003 117.854,136.67 120.5,125.5C 157.976,185.888 211.642,208.388 281.5,193C 329.027,177.308 359.694,145.474 373.5,97.5 Z"/></g>
<g><path style="opacity:0.999" fill="#e3e6e7" d="M 427.5,120.5 C 439.544,128.877 449.544,139.21 457.5,151.5C 456.624,151.369 455.957,151.702 455.5,152.5C 429.365,212.802 385.698,254.968 324.5,279C 253.025,304.206 184.692,297.539 119.5,259C 93.1027,242.102 70.7693,220.935 52.5,195.5C 60.2226,185.636 69.5559,177.636 80.5,171.5C 135.487,243.78 207.487,269.613 296.5,249C 362.122,227.873 405.788,185.04 427.5,120.5 Z"/></g>
<g><path style="opacity:0.999" fill="#dde2e4" d="M 457.5,151.5 C 461.844,156.847 465.177,162.847 467.5,169.5C 425.04,252.94 357.04,300.107 263.5,311C 180.095,315.862 110.261,287.695 54,226.5C 49.9026,221.284 46.0693,215.951 42.5,210.5C 45.0563,204.951 48.3897,199.951 52.5,195.5C 70.7693,220.935 93.1027,242.102 119.5,259C 184.692,297.539 253.025,304.206 324.5,279C 385.698,254.968 429.365,212.802 455.5,152.5C 455.957,151.702 456.624,151.369 457.5,151.5 Z"/></g>
<g><path style="opacity:0.999" fill="#d9dfe1" d="M 467.5,169.5 C 470.296,174.105 472.296,179.105 473.5,184.5C 471.821,190.193 469.321,195.526 466,200.5C 413.12,280.294 338.453,321.96 242,325.5C 164.64,323.643 99.6396,294.643 47,238.5C 42.8741,234.22 39.3741,229.554 36.5,224.5C 37.5422,219.358 39.5422,214.691 42.5,210.5C 46.0693,215.951 49.9026,221.284 54,226.5C 110.261,287.695 180.095,315.862 263.5,311C 357.04,300.107 425.04,252.94 467.5,169.5 Z"/></g>
<g><path style="opacity:0.999" fill="#d4dbde" d="M 473.5,184.5 C 476.553,191.753 478.219,199.42 478.5,207.5C 441.564,267.569 389.231,308.069 321.5,329C 220.45,355.317 130.784,334.317 52.5,266C 44.8998,258.905 37.8998,251.405 31.5,243.5C 32.4077,236.864 34.0743,230.531 36.5,224.5C 39.3741,229.554 42.8741,234.22 47,238.5C 99.6396,294.643 164.64,323.643 242,325.5C 338.453,321.96 413.12,280.294 466,200.5C 469.321,195.526 471.821,190.193 473.5,184.5 Z"/></g>
<g><path style="opacity:0.994" fill="#cfd8dc" d="M 478.5,207.5 C 483.28,261.774 462.947,303.94 417.5,334C 401.989,343.059 385.322,348.726 367.5,351C 282.833,351.667 198.167,351.667 113.5,351C 70.8625,342.696 44.0291,317.529 33,275.5C 31.6557,264.882 31.1557,254.216 31.5,243.5C 37.8998,251.405 44.8998,258.905 52.5,266C 130.784,334.317 220.45,355.317 321.5,329C 389.231,308.069 441.564,267.569 478.5,207.5 Z"/></g>
<g><path style="opacity:0.964" fill="#15ade7" d="M 208.5,372.5 C 222.008,371.868 226.508,377.868 222,390.5C 214.167,398.333 206.333,406.167 198.5,414C 184.236,418.068 178.736,412.901 182,398.5C 190.728,389.604 199.562,380.937 208.5,372.5 Z"/></g>
<g><path style="opacity:0.977" fill="#24bff2" d="M 127.5,399.5 C 117.167,399.5 106.833,399.5 96.5,399.5C 103.262,391.235 110.595,383.401 118.5,376C 123.916,371.783 129.583,371.449 135.5,375C 139.327,380.309 139.494,385.809 136,391.5C 133.297,394.371 130.464,397.038 127.5,399.5 Z"/></g>
<g><path style="opacity:0.977" fill="#24bff2" d="M 319.5,399.5 C 309.167,399.5 298.833,399.5 288.5,399.5C 295.262,391.235 302.595,383.401 310.5,376C 315.916,371.783 321.583,371.449 327.5,375C 331.327,380.309 331.494,385.809 328,391.5C 325.297,394.371 322.464,397.038 319.5,399.5 Z"/></g>
<g><path style="opacity:0.967" fill="#23c0f2" d="M 404.5,399.5 C 394.167,399.5 383.833,399.5 373.5,399.5C 381.631,390.868 389.964,382.368 398.5,374C 408.3,370.066 414.3,373.232 416.5,383.5C 414.43,390.242 410.43,395.576 404.5,399.5 Z"/></g>
<g><path style="opacity:0.977" fill="#15b8f1" d="M 96.5,399.5 C 106.833,399.5 117.167,399.5 127.5,399.5C 122.67,405.163 117.337,410.33 111.5,415C 98.6859,417.023 93.6859,411.857 96.5,399.5 Z"/></g>
<g><path style="opacity:0.977" fill="#15b8f1" d="M 288.5,399.5 C 298.833,399.5 309.167,399.5 319.5,399.5C 314.67,405.163 309.337,410.33 303.5,415C 290.686,417.023 285.686,411.857 288.5,399.5 Z"/></g>
<g><path style="opacity:0.964" fill="#15b8f0" d="M 373.5,399.5 C 383.833,399.5 394.167,399.5 404.5,399.5C 400.037,404.465 395.37,409.298 390.5,414C 376.913,418.24 371.247,413.407 373.5,399.5 Z"/></g>
<g><path style="opacity:0.973" fill="#00a4e6" d="M 253.5,465.5 C 243.442,466.14 233.775,465.473 224.5,463.5C 231.262,455.235 238.595,447.401 246.5,440C 251.916,435.783 257.583,435.449 263.5,439C 267.327,444.309 267.494,449.809 264,455.5C 260.631,459.037 257.131,462.371 253.5,465.5 Z"/></g>
<g><path style="opacity:0.972" fill="#00a1e3" d="M 145.5,466.5 C 136.014,465.506 126.348,465.173 116.5,465.5C 124.596,455.9 133.263,446.734 142.5,438C 152.3,434.066 158.3,437.232 160.5,447.5C 159.964,449.942 159.131,452.275 158,454.5C 153.964,458.704 149.798,462.704 145.5,466.5 Z"/></g>
<g><path style="opacity:0.972" fill="#00a1e3" d="M 337.5,466.5 C 328.014,465.506 318.348,465.173 308.5,465.5C 316.596,455.9 325.263,446.734 334.5,438C 344.3,434.066 350.3,437.232 352.5,447.5C 351.964,449.942 351.131,452.275 350,454.5C 345.964,458.704 341.798,462.704 337.5,466.5 Z"/></g>
<g><path style="opacity:0.954" fill="#0099dd" d="M 116.5,465.5 C 126.348,465.173 136.014,465.506 145.5,466.5C 142.037,470.464 138.37,474.298 134.5,478C 122.402,482.458 116.402,478.291 116.5,465.5 Z"/></g>
<g><path style="opacity:0.972" fill="#0099de" d="M 224.5,463.5 C 233.775,465.473 243.442,466.14 253.5,465.5C 249.336,470.497 244.669,474.997 239.5,479C 226.686,481.023 221.686,475.857 224.5,463.5 Z"/></g>
<g><path style="opacity:0.954" fill="#0099dd" d="M 308.5,465.5 C 318.348,465.173 328.014,465.506 337.5,466.5C 334.037,470.464 330.37,474.298 326.5,478C 314.402,482.458 308.402,478.291 308.5,465.5 Z"/></g>
</svg>
