<?xml version="1.0" encoding="UTF-8"?>
<!DOCTYPE svg PUBLIC "-//W3C//DTD SVG 1.1//EN" "http://www.w3.org/Graphics/SVG/1.1/DTD/svg11.dtd">
<svg xmlns="http://www.w3.org/2000/svg" version="1.1" width="512px" height="512px" style="shape-rendering:geometricPrecision; text-rendering:geometricPrecision; image-rendering:optimizeQuality; fill-rule:evenodd; clip-rule:evenodd" xmlns:xlink="http://www.w3.org/1999/xlink">
<g><path style="opacity:0.999" fill="#dbebfc" d="M 235.5,-0.5 C 246.833,-0.5 258.167,-0.5 269.5,-0.5C 271.607,0.468218 273.941,0.801552 276.5,0.5C 259.204,5.63329 242.538,12.8 226.5,22C 201.874,38.1262 183.541,59.6262 171.5,86.5C 132.586,82.19 100.086,94.5233 74,123.5C 50.8469,153.75 45.1802,187.083 57,223.5C 74.3714,264.592 105.205,287.258 149.5,291.5C 128.137,291.89 106.803,291.39 85.5,290C 37.8807,279.881 9.214,251.048 -0.5,203.5C -0.5,193.833 -0.5,184.167 -0.5,174.5C 8.02767,128.469 35.0277,99.6361 80.5,88C 93.207,85.4591 105.874,85.1258 118.5,87C 142.253,37.4095 181.253,8.24284 235.5,-0.5 Z"/></g>
<g><path style="opacity:0.996" fill="#ebf6fe" d="M 276.5,0.5 C 330.725,11.5639 368.559,42.5639 390,93.5C 394.897,106.751 397.73,120.418 398.5,134.5C 414.17,134.333 429.837,134.5 445.5,135C 481.461,142.437 503.461,163.937 511.5,199.5C 511.5,208.167 511.5,216.833 511.5,225.5C 503.785,260.382 482.451,281.882 447.5,290C 348.19,291.482 248.857,291.982 149.5,291.5C 105.205,287.258 74.3714,264.592 57,223.5C 45.1802,187.083 50.8469,153.75 74,123.5C 100.086,94.5233 132.586,82.19 171.5,86.5C 183.541,59.6262 201.874,38.1262 226.5,22C 242.538,12.8 259.204,5.63329 276.5,0.5 Z"/></g>
<g><path style="opacity:1" fill="#61b7fe" d="M 136.5,341.5 C 130.432,350.087 124.932,359.087 120,368.5C 113.102,387.268 118.269,401.601 135.5,411.5C 118.089,415.751 105.589,409.751 98,393.5C 95.6086,384.588 96.2753,375.921 100,367.5C 105.642,355.04 113.142,343.873 122.5,334C 129.284,332.559 133.951,335.059 136.5,341.5 Z"/></g>
<g><path style="opacity:1" fill="#61b7fe" d="M 265.5,341.5 C 259.843,349.47 254.677,357.803 250,366.5C 241.931,385.789 246.764,400.789 264.5,411.5C 247.089,415.751 234.589,409.751 227,393.5C 224.609,384.588 225.275,375.921 229,367.5C 234.564,354.626 242.397,343.459 252.5,334C 258.888,332.879 263.221,335.379 265.5,341.5 Z"/></g>
<g><path style="opacity:1" fill="#61b7fe" d="M 394.5,341.5 C 386.797,351.566 380.63,362.566 376,374.5C 372.746,391.319 378.579,403.652 393.5,411.5C 376.089,415.751 363.589,409.751 356,393.5C 353.608,384.6 354.274,375.933 358,367.5C 363.564,354.626 371.397,343.459 381.5,334C 387.888,332.879 392.221,335.379 394.5,341.5 Z"/></g>
<g><path style="opacity:0.985" fill="#8ac8fe" d="M 265.5,341.5 C 276.299,353.266 282.965,367.099 285.5,383C 284.919,397.362 277.919,406.862 264.5,411.5C 246.764,400.789 241.931,385.789 250,366.5C 254.677,357.803 259.843,349.47 265.5,341.5 Z"/></g>
<g><path style="opacity:0.986" fill="#8ac8fe" d="M 394.5,341.5 C 405.299,353.266 411.965,367.099 414.5,383C 413.919,397.362 406.919,406.862 393.5,411.5C 378.579,403.652 372.746,391.319 376,374.5C 380.63,362.566 386.797,351.566 394.5,341.5 Z"/></g>
<g><path style="opacity:0.986" fill="#89c8fe" d="M 136.5,341.5 C 147.293,353.256 153.96,367.089 156.5,383C 155.919,397.362 148.919,406.862 135.5,411.5C 118.269,401.601 113.102,387.268 120,368.5C 124.932,359.087 130.432,350.087 136.5,341.5 Z"/></g>
<g><path style="opacity:1" fill="#61b7fe" d="M 201.5,441.5 C 190.595,452.643 183.929,465.976 181.5,481.5C 181.791,495.425 188.458,504.758 201.5,509.5C 200.5,510.167 199.5,510.833 198.5,511.5C 193.5,511.5 188.5,511.5 183.5,511.5C 165.729,504.969 158.563,492.302 162,473.5C 167.415,458.828 175.248,445.661 185.5,434C 193.495,430.831 198.829,433.331 201.5,441.5 Z"/></g>
<g><path style="opacity:1" fill="#61b7fe" d="M 329.5,439.5 C 329.649,440.552 329.483,441.552 329,442.5C 319.062,453.709 312.895,466.709 310.5,481.5C 310.356,491.712 314.356,499.879 322.5,506C 325.239,507.026 327.572,508.526 329.5,510.5C 328.508,510.328 327.842,510.662 327.5,511.5C 322.5,511.5 317.5,511.5 312.5,511.5C 294.73,504.97 287.563,492.304 291,473.5C 296.415,458.828 304.248,445.661 314.5,434C 321.403,430.811 326.403,432.645 329.5,439.5 Z"/></g>
<g><path style="opacity:0.985" fill="#89c8fe" d="M 201.5,441.5 C 211.994,452.988 218.66,466.488 221.5,482C 220.877,493.252 215.877,501.919 206.5,508C 204.975,509.009 203.308,509.509 201.5,509.5C 188.458,504.758 181.791,495.425 181.5,481.5C 183.929,465.976 190.595,452.643 201.5,441.5 Z"/></g>
<g><path style="opacity:0.99" fill="#89c9fe" d="M 329.5,439.5 C 340.471,451.778 347.471,466.111 350.5,482.5C 349.29,496.281 342.29,505.614 329.5,510.5C 327.572,508.526 325.239,507.026 322.5,506C 314.356,499.879 310.356,491.712 310.5,481.5C 312.895,466.709 319.062,453.709 329,442.5C 329.483,441.552 329.649,440.552 329.5,439.5 Z"/></g>
</svg>
