<?xml version="1.0" encoding="UTF-8"?>
<!DOCTYPE svg PUBLIC "-//W3C//DTD SVG 1.1//EN" "http://www.w3.org/Graphics/SVG/1.1/DTD/svg11.dtd">
<svg xmlns="http://www.w3.org/2000/svg" version="1.1" width="512px" height="512px" style="shape-rendering:geometricPrecision; text-rendering:geometricPrecision; image-rendering:optimizeQuality; fill-rule:evenodd; clip-rule:evenodd" xmlns:xlink="http://www.w3.org/1999/xlink">
<g><path style="opacity:0.997" fill="#4fa0dd" d="M 200.5,-0.5 C 210.5,-0.5 220.5,-0.5 230.5,-0.5C 277.286,7.73807 308.286,34.4047 323.5,79.5C 322.833,79.5 322.167,79.5 321.5,79.5C 313.591,79.6513 305.924,80.9846 298.5,83.5C 287.107,86.5305 276.44,91.1972 266.5,97.5C 237.585,67.084 208.085,37.084 178,7.5C 177.536,6.90558 177.369,6.23891 177.5,5.5C 185.153,3.00449 192.82,1.00449 200.5,-0.5 Z"/></g>
<g><path style="opacity:0.997" fill="#4798d6" d="M 177.5,5.5 C 177.369,6.23891 177.536,6.90558 178,7.5C 208.085,37.084 237.585,67.084 266.5,97.5C 265.306,98.2719 264.306,99.2719 263.5,100.5C 261.405,101.412 259.405,102.579 257.5,104C 253.234,107.619 249.234,111.452 245.5,115.5C 243.861,117.806 241.861,119.806 239.5,121.5C 207.167,89.8333 175.167,57.8333 143.5,25.5C 153.545,16.8045 164.879,10.1378 177.5,5.5 Z"/></g>
<g><path style="opacity:0.998" fill="#4193d1" d="M 143.5,25.5 C 175.167,57.8333 207.167,89.8333 239.5,121.5C 235.434,127.575 231.767,133.908 228.5,140.5C 226.833,143.167 225.167,145.833 223.5,148.5C 190.451,114.45 156.784,81.1167 122.5,48.5C 128.478,39.8569 135.478,32.1903 143.5,25.5 Z"/></g>
<g><path style="opacity:0.998" fill="#3b8dcc" d="M 122.5,48.5 C 156.784,81.1167 190.451,114.45 223.5,148.5C 222.095,152.385 221.095,156.385 220.5,160.5C 218.5,160.5 216.5,160.5 214.5,160.5C 205.573,159.108 196.573,159.441 187.5,161.5C 187.631,160.761 187.464,160.094 187,159.5C 160.298,132.965 133.798,106.299 107.5,79.5C 110.795,68.2453 115.795,57.912 122.5,48.5 Z"/></g>
<g><path style="opacity:0.998" fill="#3487c6" d="M 107.5,79.5 C 133.798,106.299 160.298,132.965 187,159.5C 187.464,160.094 187.631,160.761 187.5,161.5C 180.378,162.737 173.712,165.07 167.5,168.5C 161.205,171.314 155.205,174.647 149.5,178.5C 119.167,147.833 88.8333,117.167 58.5,86.5C 74.1787,80.1075 90.512,77.7742 107.5,79.5 Z"/></g>
<g><path style="opacity:1" fill="#b7d9f4" d="M 321.5,79.5 C 320.737,80.2679 319.737,80.7679 318.5,81C 382.333,144.833 446.167,208.667 510,272.5C 510.499,267.845 510.666,263.179 510.5,258.5C 510.833,258.5 511.167,258.5 511.5,258.5C 511.5,267.167 511.5,275.833 511.5,284.5C 510.626,287.535 509.626,290.535 508.5,293.5C 438.25,224.75 368.416,155.417 299,85.5C 298.536,84.9056 298.369,84.2389 298.5,83.5C 305.924,80.9846 313.591,79.6513 321.5,79.5 Z"/></g>
<g><path style="opacity:1" fill="#bbdbf5" d="M 321.5,79.5 C 322.167,79.5 322.833,79.5 323.5,79.5C 372.477,79.3925 407.977,101.059 430,144.5C 436.692,159.46 439.859,175.127 439.5,191.5C 470.576,195.743 492.743,212.077 506,240.5C 508.43,246.285 509.93,252.285 510.5,258.5C 510.666,263.179 510.499,267.845 510,272.5C 446.167,208.667 382.333,144.833 318.5,81C 319.737,80.7679 320.737,80.2679 321.5,79.5 Z"/></g>
<g><path style="opacity:1" fill="#b0d6f3" d="M 298.5,83.5 C 298.369,84.2389 298.536,84.9056 299,85.5C 368.416,155.417 438.25,224.75 508.5,293.5C 505.494,306.524 499.16,317.524 489.5,326.5C 413.833,251.5 338.5,176.167 263.5,100.5C 264.306,99.2719 265.306,98.2719 266.5,97.5C 276.44,91.1972 287.107,86.5305 298.5,83.5 Z"/></g>
<g><path style="opacity:0.998" fill="#2e81c1" d="M 58.5,86.5 C 88.8333,117.167 119.167,147.833 149.5,178.5C 149.5,178.833 149.5,179.167 149.5,179.5C 142.167,184.833 135.833,191.167 130.5,198.5C 129.167,200.167 127.833,201.833 126.5,203.5C 94.1667,170.833 61.8333,138.167 29.5,105.5C 37.8093,97.2083 47.4759,90.8749 58.5,86.5 Z"/></g>
<g><path style="opacity:1" fill="#aad3f2" d="M 263.5,100.5 C 338.5,176.167 413.833,251.5 489.5,326.5C 485.022,332.648 479.355,337.314 472.5,340.5C 471.448,340.649 470.448,340.483 469.5,340C 394.632,265.299 319.965,190.465 245.5,115.5C 249.234,111.452 253.234,107.619 257.5,104C 259.405,102.579 261.405,101.412 263.5,100.5 Z"/></g>
<g><path style="opacity:1" fill="#a5d0f1" d="M 245.5,115.5 C 319.965,190.465 394.632,265.299 469.5,340C 470.448,340.483 471.448,340.649 472.5,340.5C 464.018,345.996 454.685,349.329 444.5,350.5C 441.813,350.664 439.146,350.497 436.5,350C 366.583,280.584 297.25,210.75 228.5,140.5C 231.767,133.908 235.434,127.575 239.5,121.5C 241.861,119.806 243.861,117.806 245.5,115.5 Z"/></g>
<g><path style="opacity:0.998" fill="#287bbb" d="M 29.5,105.5 C 61.8333,138.167 94.1667,170.833 126.5,203.5C 122.084,210.333 118.75,217.666 116.5,225.5C 115.167,229.833 113.833,234.167 112.5,238.5C 78.5499,202.883 43.8832,167.883 8.5,133.5C 13.5652,122.697 20.5652,113.364 29.5,105.5 Z"/></g>
<g><path style="opacity:0.998" fill="#2277b7" d="M 8.5,133.5 C 43.8832,167.883 78.5499,202.883 112.5,238.5C 111.223,248.186 111.223,257.853 112.5,267.5C 112.5,268.833 112.5,270.167 112.5,271.5C 108.167,271.5 103.833,271.5 99.5,271.5C 66.1395,237.806 32.8062,204.14 -0.5,170.5C -0.5,167.5 -0.5,164.5 -0.5,161.5C 1.26564,151.867 4.26564,142.533 8.5,133.5 Z"/></g>
<g><path style="opacity:1" fill="#9fcdf0" d="M 228.5,140.5 C 297.25,210.75 366.583,280.584 436.5,350C 439.146,350.497 441.813,350.664 444.5,350.5C 431.01,351.496 417.344,351.829 403.5,351.5C 340.368,287.868 277.035,224.368 213.5,161C 213.728,160.601 214.062,160.435 214.5,160.5C 216.5,160.5 218.5,160.5 220.5,160.5C 221.095,156.385 222.095,152.385 223.5,148.5C 225.167,145.833 226.833,143.167 228.5,140.5 Z"/></g>
<g><path style="opacity:1" fill="#98c9ef" d="M 214.5,160.5 C 214.062,160.435 213.728,160.601 213.5,161C 277.035,224.368 340.368,287.868 403.5,351.5C 385.5,351.5 367.5,351.5 349.5,351.5C 288.833,290.5 228.167,229.5 167.5,168.5C 173.712,165.07 180.378,162.737 187.5,161.5C 196.573,159.441 205.573,159.108 214.5,160.5 Z"/></g>
<g><path style="opacity:1" fill="#91c6ee" d="M 167.5,168.5 C 228.167,229.5 288.833,290.5 349.5,351.5C 339.5,351.5 329.5,351.5 319.5,351.5C 263.201,294.701 206.701,238.035 150,181.5C 149.536,180.906 149.369,180.239 149.5,179.5C 149.5,179.167 149.5,178.833 149.5,178.5C 155.205,174.647 161.205,171.314 167.5,168.5 Z"/></g>
<g><path style="opacity:0.993" fill="#1d72b2" d="M -0.5,170.5 C 32.8062,204.14 66.1395,237.806 99.5,271.5C 61.3978,272.203 32.2311,256.536 12,224.5C 5.90999,213.389 1.74333,201.722 -0.5,189.5C -0.5,183.167 -0.5,176.833 -0.5,170.5 Z"/></g>
<g><path style="opacity:1" fill="#8cc3ed" d="M 149.5,179.5 C 149.369,180.239 149.536,180.906 150,181.5C 206.701,238.035 263.201,294.701 319.5,351.5C 306.5,351.5 293.5,351.5 280.5,351.5C 230.868,301.368 181.035,251.368 131,201.5C 130.517,200.552 130.351,199.552 130.5,198.5C 135.833,191.167 142.167,184.833 149.5,179.5 Z"/></g>
<g><path style="opacity:1" fill="#86c0ed" d="M 130.5,198.5 C 130.351,199.552 130.517,200.552 131,201.5C 181.035,251.368 230.868,301.368 280.5,351.5C 267.5,351.5 254.5,351.5 241.5,351.5C 199.833,309.5 158.167,267.5 116.5,225.5C 118.75,217.666 122.084,210.333 126.5,203.5C 127.833,201.833 129.167,200.167 130.5,198.5 Z"/></g>
<g><path style="opacity:1" fill="#80bdec" d="M 116.5,225.5 C 158.167,267.5 199.833,309.5 241.5,351.5C 228.167,351.5 214.833,351.5 201.5,351.5C 199.708,350.691 197.708,350.191 195.5,350C 167.965,322.298 140.299,294.798 112.5,267.5C 111.223,257.853 111.223,248.186 112.5,238.5C 113.833,234.167 115.167,229.833 116.5,225.5 Z"/></g>
<g><path style="opacity:1" fill="#77b7e9" d="M 112.5,267.5 C 140.299,294.798 167.965,322.298 195.5,350C 197.708,350.191 199.708,350.691 201.5,351.5C 162.071,348.205 134.238,328.539 118,292.5C 115.381,285.69 113.548,278.69 112.5,271.5C 112.5,270.167 112.5,268.833 112.5,267.5 Z"/></g>
<g><path style="opacity:0.97" fill="#acd3f2" d="M 100.5,393.5 C 92.7797,385.776 84.7797,378.443 76.5,371.5C 79.3632,368.246 83.0298,366.913 87.5,367.5C 100.725,368.907 105.892,376.241 103,389.5C 102.392,391.066 101.558,392.4 100.5,393.5 Z"/></g>
<g><path style="opacity:0.993" fill="#a9d2f2" d="M 207.5,415.5 C 201.833,410.5 196.5,405.167 191.5,399.5C 191.657,398.127 191.49,396.793 191,395.5C 185.633,390.468 180.633,385.135 176,379.5C 174.464,368.503 178.964,365.003 189.5,369C 192.682,372.349 196.015,375.516 199.5,378.5C 203.352,374.814 207.352,371.314 211.5,368C 221.333,365.833 225.167,369.667 223,379.5C 218.367,385.135 213.367,390.468 208,395.5C 207.51,396.793 207.343,398.127 207.5,399.5C 208.873,399.657 210.207,399.49 211.5,399C 216.532,393.633 221.865,388.633 227.5,384C 238.497,382.464 241.997,386.964 238,397.5C 234.651,400.682 231.484,404.015 228.5,407.5C 232.186,411.352 235.686,415.352 239,419.5C 241.167,429.333 237.333,433.167 227.5,431C 221.865,426.367 216.532,421.367 211.5,416C 210.207,415.51 208.873,415.343 207.5,415.5 Z"/></g>
<g><path style="opacity:0.975" fill="#91c5ee" d="M 76.5,371.5 C 84.7797,378.443 92.7797,385.776 100.5,393.5C 98.9286,396.231 96.5952,398.065 93.5,399C 77,401.167 69.8333,394 72,377.5C 72.7918,374.894 74.2918,372.894 76.5,371.5 Z"/></g>
<g><path style="opacity:0.97" fill="#acd3f2" d="M 300.5,401.5 C 292.78,393.776 284.78,386.443 276.5,379.5C 279.363,376.246 283.03,374.913 287.5,375.5C 300.725,376.907 305.892,384.241 303,397.5C 302.392,399.066 301.558,400.4 300.5,401.5 Z"/></g>
<g><path style="opacity:0.97" fill="#acd3f2" d="M 452.5,401.5 C 444.78,393.776 436.78,386.443 428.5,379.5C 431.363,376.246 435.03,374.913 439.5,375.5C 452.725,376.907 457.892,384.241 455,397.5C 454.392,399.066 453.558,400.4 452.5,401.5 Z"/></g>
<g><path style="opacity:0.975" fill="#91c5ee" d="M 276.5,379.5 C 284.78,386.443 292.78,393.776 300.5,401.5C 298.929,404.231 296.595,406.065 293.5,407C 277,409.167 269.833,402 272,385.5C 272.792,382.894 274.292,380.894 276.5,379.5 Z"/></g>
<g><path style="opacity:0.975" fill="#91c5ee" d="M 428.5,379.5 C 436.78,386.443 444.78,393.776 452.5,401.5C 450.929,404.231 448.595,406.065 445.5,407C 429,409.167 421.833,402 424,385.5C 424.792,382.894 426.292,380.894 428.5,379.5 Z"/></g>
<g><path style="opacity:0.98" fill="#97c9ef" d="M 191.5,399.5 C 196.5,405.167 201.833,410.5 207.5,415.5C 207.343,416.873 207.51,418.207 208,419.5C 213.367,424.532 218.367,429.865 223,435.5C 223.667,438.167 223.667,440.833 223,443.5C 222.722,444.416 222.222,445.082 221.5,445.5C 202.753,425.251 183.42,405.418 163.5,386C 162.906,385.536 162.239,385.369 161.5,385.5C 161.918,384.778 162.584,384.278 163.5,384C 166.167,383.333 168.833,383.333 171.5,384C 177.135,388.633 182.468,393.633 187.5,399C 188.793,399.49 190.127,399.657 191.5,399.5 Z"/></g>
<g><path style="opacity:0.995" fill="#8bc2ed" d="M 161.5,385.5 C 162.239,385.369 162.906,385.536 163.5,386C 183.42,405.418 202.753,425.251 221.5,445.5C 221.082,446.222 220.416,446.722 219.5,447C 216.833,447.667 214.167,447.667 211.5,447C 207.352,443.686 203.352,440.186 199.5,436.5C 195.648,440.186 191.648,443.686 187.5,447C 177.667,449.167 173.833,445.333 176,435.5C 180.633,429.865 185.633,424.532 191,419.5C 191.49,418.207 191.657,416.873 191.5,415.5C 190.127,415.343 188.793,415.51 187.5,416C 182.468,421.367 177.135,426.367 171.5,431C 161.667,433.167 157.833,429.333 160,419.5C 163.314,415.352 166.814,411.352 170.5,407.5C 166.814,403.648 163.314,399.648 160,395.5C 159.333,392.833 159.333,390.167 160,387.5C 160.278,386.584 160.778,385.918 161.5,385.5 Z"/></g>
<g><path style="opacity:0.97" fill="#acd3f2" d="M 388.5,425.5 C 380.78,417.776 372.78,410.443 364.5,403.5C 367.363,400.246 371.03,398.913 375.5,399.5C 388.725,400.907 393.892,408.241 391,421.5C 390.392,423.066 389.558,424.4 388.5,425.5 Z"/></g>
<g><path style="opacity:0.975" fill="#91c5ee" d="M 364.5,403.5 C 372.78,410.443 380.78,417.776 388.5,425.5C 386.929,428.231 384.595,430.065 381.5,431C 365,433.167 357.833,426 360,409.5C 360.792,406.894 362.292,404.894 364.5,403.5 Z"/></g>
<g><path style="opacity:0.993" fill="#a9d2f2" d="M 319.5,479.5 C 313.833,474.5 308.5,469.167 303.5,463.5C 303.657,462.127 303.49,460.793 303,459.5C 297.633,454.468 292.633,449.135 288,443.5C 286.464,432.503 290.964,429.003 301.5,433C 304.682,436.349 308.015,439.516 311.5,442.5C 315.352,438.814 319.352,435.314 323.5,432C 333.333,429.833 337.167,433.667 335,443.5C 330.367,449.135 325.367,454.468 320,459.5C 319.51,460.793 319.343,462.127 319.5,463.5C 320.873,463.657 322.207,463.49 323.5,463C 328.532,457.633 333.865,452.633 339.5,448C 350.497,446.464 353.997,450.964 350,461.5C 346.651,464.682 343.484,468.015 340.5,471.5C 344.186,475.352 347.686,479.352 351,483.5C 353.167,493.333 349.333,497.167 339.5,495C 333.865,490.367 328.532,485.367 323.5,480C 322.207,479.51 320.873,479.343 319.5,479.5 Z"/></g>
<g><path style="opacity:0.984" fill="#acd3f2" d="M 138.5,478.5 C 127.5,466.833 116.167,455.5 104.5,444.5C 108.662,440.668 113.662,439.001 119.5,439.5C 138.03,441.548 145.864,451.881 143,470.5C 142.246,473.684 140.746,476.351 138.5,478.5 Z"/></g>
<g><path style="opacity:0.985" fill="#9acaf0" d="M 104.5,444.5 C 116.167,455.5 127.5,466.833 138.5,478.5C 136.833,480.833 134.833,482.833 132.5,484.5C 121.193,473.527 109.86,462.527 98.5,451.5C 99.7573,448.573 101.757,446.239 104.5,444.5 Z"/></g>
<g><path style="opacity:0.98" fill="#97c9ef" d="M 303.5,463.5 C 308.5,469.167 313.833,474.5 319.5,479.5C 319.343,480.873 319.51,482.207 320,483.5C 325.367,488.532 330.367,493.865 335,499.5C 335.667,502.167 335.667,504.833 335,507.5C 334.722,508.416 334.222,509.082 333.5,509.5C 314.753,489.251 295.42,469.418 275.5,450C 274.906,449.536 274.239,449.369 273.5,449.5C 273.918,448.778 274.584,448.278 275.5,448C 278.167,447.333 280.833,447.333 283.5,448C 289.135,452.633 294.468,457.633 299.5,463C 300.793,463.49 302.127,463.657 303.5,463.5 Z"/></g>
<g><path style="opacity:0.995" fill="#8bc2ed" d="M 273.5,449.5 C 274.239,449.369 274.906,449.536 275.5,450C 295.42,469.418 314.753,489.251 333.5,509.5C 332.833,510.167 332.167,510.833 331.5,511.5C 328.833,511.5 326.167,511.5 323.5,511.5C 319.546,507.884 315.546,504.217 311.5,500.5C 307.454,504.217 303.454,507.884 299.5,511.5C 296.833,511.5 294.167,511.5 291.5,511.5C 287.759,508.444 286.593,504.444 288,499.5C 292.633,493.865 297.633,488.532 303,483.5C 303.49,482.207 303.657,480.873 303.5,479.5C 302.127,479.343 300.793,479.51 299.5,480C 294.468,485.367 289.135,490.367 283.5,495C 273.667,497.167 269.833,493.333 272,483.5C 275.314,479.352 278.814,475.352 282.5,471.5C 278.814,467.648 275.314,463.648 272,459.5C 271.333,456.833 271.333,454.167 272,451.5C 272.278,450.584 272.778,449.918 273.5,449.5 Z"/></g>
<g><path style="opacity:0.979" fill="#89c1ed" d="M 98.5,451.5 C 109.86,462.527 121.193,473.527 132.5,484.5C 119.573,490.356 108.407,488.022 99,477.5C 95.6904,470.871 94.6904,463.871 96,456.5C 96.3736,454.509 97.207,452.842 98.5,451.5 Z"/></g>
<g><path style="opacity:0.97" fill="#acd3f2" d="M 436.5,481.5 C 428.78,473.776 420.78,466.443 412.5,459.5C 415.363,456.246 419.03,454.913 423.5,455.5C 436.725,456.907 441.892,464.241 439,477.5C 438.392,479.066 437.558,480.4 436.5,481.5 Z"/></g>
<g><path style="opacity:0.975" fill="#91c5ee" d="M 412.5,459.5 C 420.78,466.443 428.78,473.776 436.5,481.5C 434.929,484.231 432.595,486.065 429.5,487C 413,489.167 405.833,482 408,465.5C 408.792,462.894 410.292,460.894 412.5,459.5 Z"/></g>
<g><path style="opacity:0.97" fill="#acd3f2" d="M 236.5,497.5 C 228.78,489.776 220.78,482.443 212.5,475.5C 215.363,472.246 219.03,470.913 223.5,471.5C 236.725,472.907 241.892,480.241 239,493.5C 238.392,495.066 237.558,496.4 236.5,497.5 Z"/></g>
<g><path style="opacity:0.975" fill="#91c5ee" d="M 212.5,475.5 C 220.78,482.443 228.78,489.776 236.5,497.5C 234.929,500.231 232.595,502.065 229.5,503C 213,505.167 205.833,498 208,481.5C 208.792,478.894 210.292,476.894 212.5,475.5 Z"/></g>
</svg>
