<?xml version="1.0" encoding="UTF-8"?>
<!DOCTYPE svg PUBLIC "-//W3C//DTD SVG 1.1//EN" "http://www.w3.org/Graphics/SVG/1.1/DTD/svg11.dtd">
<svg xmlns="http://www.w3.org/2000/svg" version="1.1" width="512px" height="512px" style="shape-rendering:geometricPrecision; text-rendering:geometricPrecision; image-rendering:optimizeQuality; fill-rule:evenodd; clip-rule:evenodd" xmlns:xlink="http://www.w3.org/1999/xlink">
<g><path style="opacity:0.996" fill="#b4cde1" d="M 406.5,223.5 C 397.246,205.912 383.913,192.246 366.5,182.5C 353.842,175.283 340.176,171.283 325.5,170.5C 322.777,159.728 318.443,149.728 312.5,140.5C 294.642,111.975 269.309,93.9748 236.5,86.5C 245.936,79.5723 256.602,75.5723 268.5,74.5C 278.304,40.1978 300.637,19.0311 335.5,11C 379.583,5.78717 411.417,22.9538 431,62.5C 432.477,66.4299 433.644,70.4299 434.5,74.5C 469.525,80.0219 491.358,100.022 500,134.5C 504.95,174.112 489.45,202.279 453.5,219C 448.625,220.802 443.625,222.135 438.5,223C 427.839,223.5 417.172,223.667 406.5,223.5 Z"/></g>
<g><path style="opacity:0.998" fill="#ecf4fb" d="M 236.5,86.5 C 269.309,93.9748 294.642,111.975 312.5,140.5C 245.833,141.833 179.167,141.833 112.5,140.5C 139.427,99.2046 177.76,80.7046 227.5,85C 230.544,85.3629 233.544,85.8629 236.5,86.5 Z"/></g>
<g><path style="opacity:0.998" fill="#e7f1fa" d="M 112.5,140.5 C 179.167,141.833 245.833,141.833 312.5,140.5C 318.443,149.728 322.777,159.728 325.5,170.5C 340.176,171.283 353.842,175.283 366.5,182.5C 262.833,183.833 159.167,183.833 55.5,182.5C 61.046,178.896 67.046,176.062 73.5,174C 82.1195,171.843 90.7862,170.01 99.5,168.5C 102.703,158.52 107.036,149.187 112.5,140.5 Z"/></g>
<g><path style="opacity:0.999" fill="#e2eff8" d="M 55.5,182.5 C 159.167,183.833 262.833,183.833 366.5,182.5C 383.913,192.246 397.246,205.912 406.5,223.5C 408.896,229.022 410.896,234.688 412.5,240.5C 278.903,239.502 145.237,239.169 11.5,239.5C 11.5,238.5 11.5,237.5 11.5,236.5C 19.0703,212.679 33.7369,194.679 55.5,182.5 Z"/></g>
<g><path style="opacity:0.999" fill="#ddebf7" d="M 11.5,236.5 C 11.5,237.5 11.5,238.5 11.5,239.5C 145.237,239.169 278.903,239.502 412.5,240.5C 415.409,253.635 416.242,266.968 415,280.5C 414.689,284.09 413.856,287.423 412.5,290.5C 278.167,290.5 143.833,290.5 9.5,290.5C 5.00846,272.182 5.67513,254.182 11.5,236.5 Z"/></g>
<g><path style="opacity:0.998" fill="#d8e9f6" d="M 9.5,290.5 C 143.833,290.5 278.167,290.5 412.5,290.5C 407.931,309.647 398.265,325.647 383.5,338.5C 268.668,337.5 153.668,337.167 38.5,337.5C 24.0223,324.893 14.3556,309.226 9.5,290.5 Z"/></g>
<g><path style="opacity:0.982" fill="#d4e6f4" d="M 38.5,337.5 C 153.668,337.167 268.668,337.5 383.5,338.5C 370.217,349.974 354.884,357.474 337.5,361C 304.532,362.449 271.532,362.949 238.5,362.5C 213.167,362.5 187.833,362.5 162.5,362.5C 136.466,362.934 110.466,362.434 84.5,361C 66.7283,357.616 51.395,349.782 38.5,337.5 Z"/></g>
<g><path style="opacity:0.991" fill="#ffaa66" d="M 162.5,362.5 C 187.833,362.5 213.167,362.5 238.5,362.5C 237.739,369.47 236.406,376.304 234.5,383C 248.833,383.333 263.167,383.667 277.5,384C 275.498,386.86 273.165,389.36 270.5,391.5C 232.5,391.5 194.5,391.5 156.5,391.5C 158.025,381.732 160.025,372.065 162.5,362.5 Z"/></g>
<g><path style="opacity:0.988" fill="#fea565" d="M 156.5,391.5 C 194.5,391.5 232.5,391.5 270.5,391.5C 261.208,404.423 251.208,416.756 240.5,428.5C 220.674,427.503 200.674,427.17 180.5,427.5C 170.013,426.506 159.346,426.172 148.5,426.5C 150.676,414.605 153.342,402.938 156.5,391.5 Z"/></g>
<g><path style="opacity:0.952" fill="#53a5ff" d="M 28.5,393.5 C 39.3209,393.488 43.8209,398.822 42,409.5C 38.3943,420.984 34.3943,432.318 30,443.5C 26.2566,447.259 21.7566,448.426 16.5,447C 10.9015,444.225 8.73479,439.725 10,433.5C 13.6667,422.5 17.3333,411.5 21,400.5C 22.7668,397.228 25.2668,394.895 28.5,393.5 Z"/></g>
<g><path style="opacity:0.958" fill="#53a5ff" d="M 113.5,393.5 C 124.87,393.704 129.37,399.371 127,410.5C 123.531,421.241 119.864,431.908 116,442.5C 112.345,447.275 107.512,448.775 101.5,447C 97.4419,444.887 95.1086,441.554 94.5,437C 98.3937,423.653 102.894,410.486 108,397.5C 109.812,396.023 111.645,394.69 113.5,393.5 Z"/></g>
<g><path style="opacity:0.956" fill="#53a6ff" d="M 295.5,393.5 C 305.319,393.15 309.819,397.817 309,407.5C 305.459,420.124 301.126,432.457 296,444.5C 295.097,445.701 293.931,446.535 292.5,447C 280.555,449.388 275.389,444.555 277,432.5C 280.667,421.5 284.333,410.5 288,399.5C 290.109,396.878 292.609,394.878 295.5,393.5 Z"/></g>
<g><path style="opacity:0.958" fill="#54a5ff" d="M 379.5,393.5 C 388,392.57 393,396.236 394.5,404.5C 390.697,418.076 386.197,431.41 381,444.5C 376.975,447.393 372.475,448.226 367.5,447C 361.891,443.723 360.058,438.89 362,432.5C 365.667,421.5 369.333,410.5 373,399.5C 374.494,396.686 376.66,394.686 379.5,393.5 Z"/></g>
<g><path style="opacity:0.988" fill="#fe9f63" d="M 180.5,427.5 C 200.674,427.17 220.674,427.503 240.5,428.5C 221.154,453.17 201.32,477.503 181,501.5C 180.5,476.836 180.333,452.169 180.5,427.5 Z"/></g>
<g><path style="opacity:0.97" fill="#8ad2fe" d="M 58.5,447.5 C 67.6946,445.752 73.028,449.419 74.5,458.5C 70.4951,471.682 65.9951,484.682 61,497.5C 54.6712,503 48.6712,502.667 43,496.5C 41.9944,494.466 41.4944,492.3 41.5,490C 44.7197,477.339 48.5531,464.839 53,452.5C 54.7297,450.598 56.563,448.931 58.5,447.5 Z"/></g>
<g><path style="opacity:0.968" fill="#8bd3fe" d="M 325.5,447.5 C 334.7,445.716 340.033,449.383 341.5,458.5C 337.835,471.328 333.669,483.994 329,496.5C 322.667,503.167 316.333,503.167 310,496.5C 308.994,494.466 308.494,492.3 308.5,490C 311.386,478.34 314.886,466.84 319,455.5C 320.305,452.039 322.471,449.372 325.5,447.5 Z"/></g>
</svg>
